<?xml version="1.0" encoding="UTF-8" standalone="no"?>
<svg
   xmlns:dc="http://purl.org/dc/elements/1.1/"
   xmlns:cc="http://creativecommons.org/ns#"
   xmlns:rdf="http://www.w3.org/1999/02/22-rdf-syntax-ns#"
   xmlns:svg="http://www.w3.org/2000/svg"
   xmlns="http://www.w3.org/2000/svg"
   xmlns:sodipodi="http://sodipodi.sourceforge.net/DTD/sodipodi-0.dtd"
   xmlns:inkscape="http://www.inkscape.org/namespaces/inkscape"
   id="ba65d029-7b6e-4d16-9739-50ea7099b679"
   data-name="Layer 1"
   width="888"
   height="618.10603"
   viewBox="0 0 888 618.10603"
   version="1.1"
   sodipodi:docname="doping.svg"
   inkscape:version="0.92.5 (2060ec1f9f, 2020-04-08)">
  <metadata
     id="metadata418">
    <rdf:RDF>
      <cc:Work
         rdf:about="">
        <dc:format>image/svg+xml</dc:format>
        <dc:type
           rdf:resource="http://purl.org/dc/dcmitype/StillImage" />
      </cc:Work>
    </rdf:RDF>
  </metadata>
  <defs
     id="defs416" />
  <sodipodi:namedview
     pagecolor="#ffffff"
     bordercolor="#666666"
     borderopacity="1"
     objecttolerance="10"
     gridtolerance="10"
     guidetolerance="10"
     inkscape:pageopacity="0"
     inkscape:pageshadow="2"
     inkscape:window-width="1366"
     inkscape:window-height="745"
     id="namedview414"
     showgrid="false"
     inkscape:zoom="0.93511466"
     inkscape:cx="444"
     inkscape:cy="394.60402"
     inkscape:window-x="-8"
     inkscape:window-y="-8"
     inkscape:window-maximized="1"
     inkscape:current-layer="ba65d029-7b6e-4d16-9739-50ea7099b679" />
  <path
     d="M 222.75862,615.10602 H 657.24138 V 103.96948 c 0,-27.065617 -27.48654,-49.084416 -61.27089,-49.084416 H 284.02951 c -33.78537,0 -61.27089,22.018799 -61.27089,49.084416 z"
     id="path311"
     inkscape:connector-curvature="0"
     style="fill:#e6e6e6;stroke-width:2.03758931" />
  <path
     d="M 255.86206,593.96957 H 624.13794 V 160.72041 c 0,-22.94134 -23.29811,-41.60489 -51.93437,-41.60489 H 307.79643 c -28.63711,0 -51.93437,18.66355 -51.93437,41.60489 z"
     id="path313"
     inkscape:connector-curvature="0"
     style="fill:#ffffff;stroke-width:2.03758931" />
  <path
     d="M 219.47635,15.106024 C 208.73754,15.106024 200,22.105696 200,30.70864 v 45.037859 c 0,8.602921 8.73754,15.602617 19.47635,15.602617 H 660.52463 C 671.26346,91.349116 680,84.34942 680,75.746499 V 30.708676 c 0,-8.602932 -8.73654,-15.602604 -19.47537,-15.602604 z"
     id="path315"
     inkscape:connector-curvature="0"
     style="fill:#3f3d56;stroke-width:2.03758931" />
  <path
     d="m 310.0292,538.41569 a 19.083455,18.509037 0 0 0 -19.02757,18.45478 v 0 a 19.083496,18.509077 0 0 0 19.02757,18.45483 h 35.61563 v -36.90961 z"
     id="path317"
     inkscape:connector-curvature="0"
     style="fill:#3f3d56;stroke-width:2.03758931" />
  <path
     d="m 378.33332,538.41569 h -34.63994 v 36.90973 h 34.63994 a 19.083496,18.509077 0 0 0 19.02757,-18.45483 v 0 a 19.083455,18.509037 0 0 0 -19.02757,-18.4549 z"
     id="path319"
     inkscape:connector-curvature="0"
     style="fill:#1cb0e6;stroke-width:2.03758931" />
  <path
     d="m 390.74948,542.93529 a 18.918,18.348561 0 0 1 4.65986,12.04236 v 0 a 19.083496,18.509077 0 0 1 -19.02757,18.45484 h -32.68839 v 1.89281 h 34.63994 a 19.083496,18.509077 0 0 0 19.02757,-18.45483 v 0 a 18.985862,18.414381 0 0 0 -6.61141,-13.93518 z"
     id="path321"
     inkscape:connector-curvature="0"
     style="opacity:0.2;stroke-width:2.03758931" />
  <path
     d="m 470.74774,260.43686 a 19.083455,18.509037 0 0 0 -26.89729,-0.77025 v 0 a 19.083496,18.509077 0 0 0 -0.79411,26.08771 l 24.42992,25.13627 27.69146,-25.3175 z"
     id="path323"
     inkscape:connector-curvature="0"
     style="fill:#3f3d56;stroke-width:2.03758931" />
  <path
     d="m 517.59968,308.6434 -23.76062,-24.44761 -27.69147,25.3176 23.76061,24.44759 a 19.083517,18.509097 0 0 0 26.89734,0.77023 v 0 a 19.083434,18.509017 0 0 0 0.79414,-26.08781 z"
     id="path325"
     inkscape:connector-curvature="0"
     style="fill:#1cb0e6;stroke-width:2.03758931" />
  <path
     d="m 522.72551,320.50641 a 18.917959,18.348522 0 0 1 -5.8384,11.54899 v 0 a 19.083496,18.509077 0 0 1 -26.89734,-0.77021 l -22.42208,-23.07013 -1.42008,1.29833 23.76062,24.44759 a 19.083517,18.509097 0 0 0 26.89734,0.77023 v 0 a 18.985945,18.414462 0 0 0 5.91994,-14.2248 z"
     id="path327"
     inkscape:connector-curvature="0"
     style="opacity:0.2;stroke-width:2.03758931" />
  <path
     d="m 369.36843,318.63083 a 19.083455,18.509037 0 0 0 -26.89729,-0.77024 v 0 a 19.083496,18.509077 0 0 0 -0.79411,26.08772 l 24.42994,25.13626 27.69144,-25.31751 z"
     id="path329"
     inkscape:connector-curvature="0"
     style="fill:#3f3d56;stroke-width:2.03758931" />
  <path
     d="m 416.22037,366.83739 -23.76063,-24.44761 -27.69146,25.31758 23.76061,24.44759 a 19.083517,18.509097 0 0 0 26.89735,0.77023 v 0 a 19.083434,18.509017 0 0 0 0.79413,-26.08779 z"
     id="path331"
     inkscape:connector-curvature="0"
     style="fill:#1cb0e6;stroke-width:2.03758931" />
  <path
     d="m 421.3462,378.70038 a 18.917959,18.348522 0 0 1 -5.8384,11.54901 v 0 a 19.083496,18.509077 0 0 1 -26.89735,-0.77022 l -22.42208,-23.07013 -1.42008,1.29832 23.76063,24.44759 a 19.083517,18.509097 0 0 0 26.89734,0.77023 v 0 a 18.985945,18.414462 0 0 0 5.91994,-14.2248 z"
     id="path333"
     inkscape:connector-curvature="0"
     style="opacity:0.2;stroke-width:2.03758931" />
  <path
     d="m 470.74774,372.81143 a 19.083455,18.509037 0 0 0 -26.89729,-0.77024 v 0 a 19.083496,18.509077 0 0 0 -0.79411,26.08772 l 24.42992,25.13626 27.69146,-25.31751 z"
     id="path335"
     inkscape:connector-curvature="0"
     style="fill:#3f3d56;stroke-width:2.03758931" />
  <path
     d="m 517.59968,421.01799 -23.76062,-24.44762 -27.69147,25.31759 23.76061,24.44759 a 19.083517,18.509097 0 0 0 26.89734,0.77023 v 0 a 19.083434,18.509017 0 0 0 0.79414,-26.08779 z"
     id="path337"
     inkscape:connector-curvature="0"
     style="fill:#1cb0e6;stroke-width:2.03758931" />
  <path
     d="m 522.72551,432.88098 a 18.917959,18.348522 0 0 1 -5.8384,11.54901 v 0 a 19.083496,18.509077 0 0 1 -26.89734,-0.77022 l -22.42208,-23.07014 -1.42008,1.29833 23.76062,24.44759 a 19.083517,18.509097 0 0 0 26.89734,0.77023 v 0 a 18.985945,18.414462 0 0 0 5.91994,-14.2248 z"
     id="path339"
     inkscape:connector-curvature="0"
     style="opacity:0.2;stroke-width:2.03758931" />
  <path
     d="m 532.59449,488.12983 a 19.083455,18.509037 0 0 0 0.4672,-26.0951 v 0 a 19.083496,18.509077 0 0 0 -26.90498,-0.45314 l -25.61765,23.99828 26.43783,26.54827 z"
     id="path341"
     inkscape:connector-curvature="0"
     style="fill:#3f3d56;stroke-width:2.03758931" />
  <path
     d="m 483.46483,534.15399 24.91571,-23.34084 -26.43777,-26.54826 -24.91572,23.3408 a 19.083517,18.509097 0 0 0 -0.46717,26.09516 v 0 a 19.083455,18.509037 0 0 0 26.90495,0.45314 z"
     id="path343"
     inkscape:connector-curvature="0"
     style="fill:#1cb0e6;stroke-width:2.03758931" />
  <path
     d="m 471.29688,539.26923 a 18.918145,18.348702 0 0 1 -11.97748,-5.5219 v 0 a 19.083496,18.509077 0 0 1 0.46717,-26.09516 l 23.51197,-22.02574 -1.35577,-1.36146 -24.91572,23.34072 a 19.083517,18.509097 0 0 0 -0.46717,26.09516 v 0 a 18.985883,18.414401 0 0 0 14.737,5.56838 z"
     id="path345"
     inkscape:connector-curvature="0"
     style="opacity:0.2;stroke-width:2.03758931" />
  <path
     d="m 396.04276,429.93585 a 19.083455,18.509037 0 0 0 0.46721,-26.09511 v 0 a 19.083496,18.509077 0 0 0 -26.90499,-0.45313 l -25.61764,23.99828 26.43782,26.54828 z"
     id="path347"
     inkscape:connector-curvature="0"
     style="fill:#3f3d56;stroke-width:2.03758931" />
  <path
     d="m 346.91311,475.95999 24.9157,-23.34081 -26.43776,-26.54827 -24.91573,23.3408 a 19.083517,18.509097 0 0 0 -0.46717,26.09516 v 0 a 19.083455,18.509037 0 0 0 26.90496,0.45312 z"
     id="path349"
     inkscape:connector-curvature="0"
     style="fill:#1cb0e6;stroke-width:2.03758931" />
  <path
     d="m 334.74517,481.07525 a 18.918145,18.348702 0 0 1 -11.97749,-5.52191 v 0 a 19.083496,18.509077 0 0 1 0.46717,-26.09514 l 23.51197,-22.02576 -1.35577,-1.36146 -24.91573,23.34073 a 19.083517,18.509097 0 0 0 -0.46717,26.09516 v 0 a 18.985883,18.414401 0 0 0 14.73702,5.56838 z"
     id="path351"
     inkscape:connector-curvature="0"
     style="opacity:0.2;stroke-width:2.03758931" />
  <path
     d="m 590.52551,359.70174 a 19.083455,18.509037 0 0 0 0.46723,-26.0951 v 0 a 19.083496,18.509077 0 0 0 -26.905,-0.45313 l -25.61765,23.99826 26.43782,26.54828 z"
     id="path353"
     inkscape:connector-curvature="0"
     style="fill:#3f3d56;stroke-width:2.03758931" />
  <path
     d="m 541.39586,405.72589 24.91571,-23.34082 -26.43777,-26.54827 -24.91571,23.34079 a 19.083517,18.509097 0 0 0 -0.46718,26.09517 v 0 a 19.083455,18.509037 0 0 0 26.90495,0.45313 z"
     id="path355"
     inkscape:connector-curvature="0"
     style="fill:#1cb0e6;stroke-width:2.03758931" />
  <path
     d="m 529.22792,410.84115 a 18.918145,18.348702 0 0 1 -11.97749,-5.52192 v 0 a 19.083496,18.509077 0 0 1 0.46718,-26.09514 l 23.51196,-22.02576 -1.35577,-1.36145 -24.91571,23.34071 a 19.083517,18.509097 0 0 0 -0.46718,26.09517 v 0 a 18.985883,18.414401 0 0 0 14.73701,5.56839 z"
     id="path357"
     inkscape:connector-curvature="0"
     style="opacity:0.2;stroke-width:2.03758931" />
  <path
     d="m 547.29946,505.25291 a 19.083455,18.509037 0 0 0 -26.89729,-0.77026 v 0 a 19.083496,18.509077 0 0 0 -0.79411,26.08772 l 24.42993,25.13628 27.69144,-25.31752 z"
     id="path359"
     inkscape:connector-curvature="0"
     style="fill:#3f3d56;stroke-width:2.03758931" />
  <path
     d="m 594.1514,553.45945 -23.76062,-24.44761 -27.69147,25.31759 23.76063,24.4476 a 19.083517,18.509097 0 0 0 26.89732,0.77022 v 0 a 19.083434,18.509017 0 0 0 0.79414,-26.0878 z"
     id="path361"
     inkscape:connector-curvature="0"
     style="fill:#1cb0e6;stroke-width:2.03758931" />
  <path
     d="m 599.27724,565.32246 a 18.917959,18.348522 0 0 1 -5.83841,11.54899 v 0 a 19.083496,18.509077 0 0 1 -26.89734,-0.7702 l -22.42209,-23.07015 -1.42006,1.29833 23.76061,24.4476 a 19.083517,18.509097 0 0 0 26.89734,0.77022 v 0 a 18.985945,18.414462 0 0 0 5.91995,-14.22479 z"
     id="path363"
     inkscape:connector-curvature="0"
     style="opacity:0.2;stroke-width:2.03758931" />
  <path
     d="m 412.81671,503.24622 a 19.083455,18.509037 0 0 0 -26.8973,-0.77025 v 0 a 19.083496,18.509077 0 0 0 -0.7941,26.08772 l 24.42992,25.13626 27.69145,-25.31751 z"
     id="path365"
     inkscape:connector-curvature="0"
     style="fill:#3f3d56;stroke-width:2.03758931" />
  <path
     d="m 459.66863,551.45277 -23.76061,-24.44762 -27.69147,25.31759 23.76062,24.4476 a 19.083517,18.509097 0 0 0 26.89734,0.77022 v 0 a 19.083434,18.509017 0 0 0 0.79412,-26.08779 z"
     id="path367"
     inkscape:connector-curvature="0"
     style="fill:#1cb0e6;stroke-width:2.03758931" />
  <path
     d="m 464.79449,563.31577 a 18.917959,18.348522 0 0 1 -5.83843,11.549 v 0 a 19.083496,18.509077 0 0 1 -26.89732,-0.77022 l -22.42209,-23.07014 -1.42008,1.29833 23.76062,24.4476 a 19.083517,18.509097 0 0 0 26.89734,0.77022 v 0 a 18.985945,18.414462 0 0 0 5.91996,-14.22479 z"
     id="path369"
     inkscape:connector-curvature="0"
     style="opacity:0.2;stroke-width:2.03758931" />
  <path
     d="m 450.67149,437.03883 a 27.440917,26.614936 0 0 1 -21.9528,26.08257 27.713669,26.879478 0 0 1 -10.9764,0 27.447869,26.621678 0 0 1 0,-52.16547 27.717765,26.883451 0 0 1 10.9764,0 27.441083,26.615096 0 0 1 21.9528,26.0829 z"
     id="path371"
     inkscape:connector-curvature="0"
     style="fill:#1cb0e6;stroke-width:2.03758931" />
  <path
     d="m 428.71869,410.95605 v 52.16535 a 27.713669,26.879478 0 0 1 -10.9764,0 v -52.16535 a 27.717765,26.883451 0 0 1 10.9764,0 z"
     id="path373"
     inkscape:connector-curvature="0"
     style="opacity:0.2;stroke-width:2.03758931" />
  <path
     d="m 463.08529,330.68432 a 27.440917,26.614936 0 0 1 -21.9528,26.08257 27.713669,26.879478 0 0 1 -10.97641,0 27.447869,26.621678 0 0 1 0,-52.16546 27.717765,26.883451 0 0 1 10.97641,0 27.441083,26.615096 0 0 1 21.9528,26.08289 z"
     id="path375"
     inkscape:connector-curvature="0"
     style="fill:#1cb0e6;stroke-width:2.03758931" />
  <path
     d="m 441.13249,304.60154 v 52.16535 a 27.713669,26.879478 0 0 1 -10.97641,0 v -52.16535 a 27.717765,26.883451 0 0 1 10.97641,0 z"
     id="path377"
     inkscape:connector-curvature="0"
     style="opacity:0.2;stroke-width:2.03758931" />
  <path
     d="m 463.08529,483.19267 a 27.440917,26.614936 0 0 1 -21.9528,26.08258 27.713669,26.879478 0 0 1 -10.97641,0 27.447869,26.621678 0 0 1 0,-52.16546 27.717765,26.883451 0 0 1 10.97641,0 27.441083,26.615096 0 0 1 21.9528,26.08288 z"
     id="path379"
     inkscape:connector-curvature="0"
     style="fill:#1cb0e6;stroke-width:2.03758931" />
  <path
     d="m 441.13249,457.10989 v 52.16536 a 27.713669,26.879478 0 0 1 -10.97641,0 v -52.16536 a 27.717765,26.883451 0 0 1 10.97641,0 z"
     id="path381"
     inkscape:connector-curvature="0"
     style="opacity:0.2;stroke-width:2.03758931" />
  <path
     d="m 531.36115,557.44017 a 27.440917,26.614936 0 0 1 -21.9528,26.08257 27.713669,26.879478 0 0 1 -10.9764,0 27.447869,26.621678 0 0 1 0,-52.16547 27.717765,26.883451 0 0 1 10.9764,0 27.441083,26.615096 0 0 1 21.9528,26.0829 z"
     id="path383"
     inkscape:connector-curvature="0"
     style="fill:#1cb0e6;stroke-width:2.03758931" />
  <path
     d="m 509.40835,531.35739 v 52.16535 a 27.713669,26.879478 0 0 1 -10.9764,0 v -52.16535 a 27.717765,26.883451 0 0 1 10.9764,0 z"
     id="path385"
     inkscape:connector-curvature="0"
     style="opacity:0.2;stroke-width:2.03758931" />
  <path
     d="m 591.67493,420.83322 a 27.440917,26.614936 0 0 1 4.12759,33.43098 27.713586,26.879397 0 0 1 -7.61733,7.66513 27.447911,26.621719 0 0 1 -38.72483,-36.20152 27.717931,26.883612 0 0 1 7.61735,-7.6651 27.441062,26.615077 0 0 1 34.59722,2.77051 z"
     id="path387"
     inkscape:connector-curvature="0"
     style="fill:#1cb0e6;stroke-width:2.03758931" />
  <path
     d="m 557.07783,418.06271 38.72483,36.20149 a 27.713586,26.879397 0 0 1 -7.61732,7.66513 l -38.72483,-36.20152 a 27.717931,26.883612 0 0 1 7.61735,-7.6651 z"
     id="path389"
     inkscape:connector-curvature="0"
     style="opacity:0.2;stroke-width:2.03758931" />
  <path
     d="m 599.95079,479.02721 a 27.440917,26.614936 0 0 1 4.12759,33.43096 27.713586,26.879397 0 0 1 -7.61733,7.66514 27.447911,26.621719 0 0 1 -38.72483,-36.2015 27.717931,26.883612 0 0 1 7.61735,-7.66512 27.441062,26.615077 0 0 1 34.59722,2.77052 z"
     id="path391"
     inkscape:connector-curvature="0"
     style="fill:#1cb0e6;stroke-width:2.03758931" />
  <path
     d="m 565.35369,476.25669 38.72483,36.20148 a 27.713586,26.879397 0 0 1 -7.61733,7.66514 l -38.72482,-36.2015 a 27.717931,26.883612 0 0 1 7.61735,-7.66512 z"
     id="path393"
     inkscape:connector-curvature="0"
     style="opacity:0.2;stroke-width:2.03758931" />
  <path
     d="m 353.74389,493.07403 a 27.440917,26.614936 0 0 1 4.12759,33.43098 27.713586,26.879397 0 0 1 -7.61733,7.66512 27.447911,26.621719 0 0 1 -38.72483,-36.20151 27.717931,26.883612 0 0 1 7.61736,-7.66511 27.441062,26.615077 0 0 1 34.59721,2.77052 z"
     id="path395"
     inkscape:connector-curvature="0"
     style="fill:#1cb0e6;stroke-width:2.03758931" />
  <path
     d="m 319.1468,490.30351 38.72483,36.2015 a 27.713586,26.879397 0 0 1 -7.61734,7.66512 l -38.72483,-36.20151 a 27.717931,26.883612 0 0 1 7.61736,-7.66511 z"
     id="path397"
     inkscape:connector-curvature="0"
     style="opacity:0.2;stroke-width:2.03758931" />
  <rect
     x="254.82761"
     y="15.10602"
     width="10.344828"
     height="74.24749"
     id="rect399"
     style="opacity:0.2;stroke-width:2.03758931" />
  <rect
     x="314.82761"
     y="15.10602"
     width="10.344828"
     height="74.24749"
     id="rect401"
     style="opacity:0.2;stroke-width:2.03758931" />
  <rect
     x="374.82761"
     y="15.10602"
     width="10.344828"
     height="74.24749"
     id="rect403"
     style="opacity:0.2;stroke-width:2.03758931" />
  <rect
     x="434.82758"
     y="15.10602"
     width="10.344828"
     height="74.24749"
     id="rect405"
     style="opacity:0.2;stroke-width:2.03758931" />
  <rect
     x="494.82758"
     y="15.10602"
     width="10.344828"
     height="74.24749"
     id="rect407"
     style="opacity:0.2;stroke-width:2.03758931" />
  <rect
     x="554.82758"
     y="15.10602"
     width="10.344828"
     height="74.24749"
     id="rect409"
     style="opacity:0.2;stroke-width:2.03758931" />
  <rect
     x="614.82758"
     y="15.10602"
     width="10.344828"
     height="74.24749"
     id="rect411"
     style="opacity:0.2;stroke-width:2.03758931" />
</svg>
