<?xml version="1.0" encoding="UTF-8"?>
<svg xmlns="http://www.w3.org/2000/svg" xmlns:xlink="http://www.w3.org/1999/xlink" width="375pt" height="374.999991pt" viewBox="0 0 375 374.999991" version="1.2">
<defs>
<clipPath id="clip1">
  <path d="M 7.707031 19 L 369.207031 19 L 369.207031 352.351562 L 7.707031 352.351562 Z M 7.707031 19 "/>
</clipPath>
</defs>
<g id="surface1">
<g clip-path="url(#clip1)" clip-rule="nonzero">
<path style=" stroke:none;fill-rule:evenodd;fill:rgb(0%,0%,0%);fill-opacity:1;" d="M 82.113281 287.828125 C 87.726562 285.3125 93.726562 282.566406 100.035156 279.507812 C 100.25 279.414062 100.394531 279.253906 100.472656 279.03125 C 100.550781 278.808594 100.53125 278.59375 100.421875 278.386719 C 98.175781 274.125 96.210938 269.734375 94.527344 265.222656 C 92.839844 260.710938 91.449219 256.105469 90.351562 251.417969 C 89.253906 246.726562 88.460938 241.984375 87.96875 237.191406 C 87.476562 232.398438 87.292969 227.59375 87.414062 222.78125 C 87.390625 213.894531 88.375 205.121094 90.378906 196.460938 C 92.378906 187.800781 95.339844 179.484375 99.261719 171.507812 C 99.386719 171.320312 99.554688 171.257812 99.769531 171.316406 C 99.988281 171.375 100.101562 171.515625 100.113281 171.738281 C 94.808594 207.609375 97.867188 243.09375 113.199219 272.347656 C 113.300781 272.546875 113.457031 272.675781 113.667969 272.746094 C 113.878906 272.8125 114.085938 272.796875 114.28125 272.699219 C 136.542969 261.554688 162.054688 247.660156 189.925781 231.214844 C 226.21875 210.117188 261.175781 187.003906 294.800781 161.871094 C 294.960938 161.757812 295.0625 161.605469 295.109375 161.414062 C 295.152344 161.222656 295.128906 161.039062 295.03125 160.867188 C 294.527344 159.859375 293.988281 158.855469 293.445312 157.886719 C 290.347656 152.632812 286.476562 148.027344 281.832031 144.070312 C 281.625 143.992188 281.417969 143.992188 281.210938 144.070312 C 280.988281 144.121094 280.835938 144.25 280.746094 144.457031 C 280.191406 145.539062 279.527344 146.546875 278.761719 147.488281 C 277.996094 148.433594 277.140625 149.285156 276.199219 150.050781 C 275.253906 150.816406 274.246094 151.476562 273.164062 152.035156 C 272.085938 152.59375 270.960938 153.035156 269.792969 153.359375 C 262.046875 155.640625 252.253906 153.976562 248.226562 146.160156 C 246.917969 143.589844 246.402344 140.867188 246.679688 137.996094 C 246.789062 137.234375 246.957031 136.488281 247.183594 135.753906 C 247.242188 135.59375 247.347656 135.472656 247.492188 135.386719 C 247.632812 135.300781 247.789062 135.269531 247.957031 135.289062 C 248.128906 135.296875 248.277344 135.359375 248.398438 135.476562 C 248.523438 135.59375 248.597656 135.738281 248.617188 135.90625 C 248.714844 136.574219 248.867188 137.226562 249.070312 137.867188 C 249.273438 138.511719 249.523438 139.132812 249.824219 139.734375 C 250.121094 140.339844 250.46875 140.914062 250.855469 141.464844 C 251.242188 142.015625 251.671875 142.53125 252.140625 143.015625 C 252.609375 143.5 253.113281 143.941406 253.648438 144.347656 C 254.1875 144.753906 254.753906 145.117188 255.34375 145.433594 C 255.9375 145.753906 256.554688 146.023438 257.1875 146.246094 C 257.824219 146.46875 258.472656 146.640625 259.136719 146.765625 C 259.796875 146.886719 260.464844 146.957031 261.136719 146.976562 C 261.8125 146.996094 262.480469 146.964844 263.148438 146.878906 C 263.816406 146.796875 264.476562 146.660156 265.121094 146.472656 C 265.769531 146.289062 266.398438 146.054688 267.011719 145.769531 C 267.621094 145.484375 268.207031 145.15625 268.765625 144.78125 C 269.324219 144.40625 269.851562 143.992188 270.347656 143.539062 C 270.84375 143.082031 271.300781 142.589844 271.71875 142.0625 C 272.140625 141.535156 272.515625 140.980469 272.847656 140.394531 C 275.238281 136.425781 277.339844 132.308594 279.15625 128.046875 C 280.976562 123.785156 282.488281 119.417969 283.699219 114.945312 C 284.910156 110.472656 285.808594 105.9375 286.390625 101.34375 C 286.972656 96.746094 287.230469 92.128906 287.171875 87.5 C 287.175781 79.066406 286.105469 70.773438 283.960938 62.617188 C 283.484375 60.816406 282.902344 59.046875 282.214844 57.316406 C 281.53125 55.582031 280.746094 53.894531 279.859375 52.257812 C 278.972656 50.617188 277.992188 49.035156 276.917969 47.511719 C 275.847656 45.988281 274.6875 44.535156 273.441406 43.148438 C 272.195312 41.761719 270.871094 40.453125 269.46875 39.222656 C 268.070312 37.996094 266.601562 36.851562 265.0625 35.796875 C 263.527344 34.742188 261.933594 33.78125 260.285156 32.914062 C 258.632812 32.046875 256.9375 31.28125 255.195312 30.613281 C 249.839844 28.710938 244.414062 27.039062 238.914062 25.597656 C 233.414062 24.15625 227.863281 22.953125 222.261719 21.988281 C 216.660156 21.019531 211.027344 20.296875 205.363281 19.808594 C 199.699219 19.324219 194.023438 19.082031 188.339844 19.082031 C 182.65625 19.082031 176.980469 19.324219 171.316406 19.808594 C 165.652344 20.296875 160.019531 21.019531 154.417969 21.988281 C 148.816406 22.953125 143.265625 24.15625 137.765625 25.597656 C 132.265625 27.039062 126.839844 28.710938 121.484375 30.613281 C 119.742188 31.28125 118.046875 32.046875 116.394531 32.914062 C 114.746094 33.78125 113.152344 34.742188 111.613281 35.796875 C 110.078125 36.851562 108.609375 37.996094 107.207031 39.222656 C 105.808594 40.453125 104.484375 41.761719 103.238281 43.148438 C 101.992188 44.53125 100.832031 45.988281 99.757812 47.511719 C 98.6875 49.035156 97.707031 50.617188 96.820312 52.257812 C 95.933594 53.894531 95.148438 55.582031 94.460938 57.316406 C 93.777344 59.046875 93.195312 60.816406 92.71875 62.617188 C 90.574219 70.773438 89.503906 79.066406 89.503906 87.5 C 89.453125 92.128906 89.71875 96.746094 90.300781 101.339844 C 90.886719 105.933594 91.785156 110.46875 92.996094 114.941406 C 94.207031 119.414062 95.71875 123.78125 97.53125 128.042969 C 99.347656 132.304688 101.445312 136.421875 103.828125 140.394531 C 104.164062 140.980469 104.539062 141.535156 104.957031 142.0625 C 105.378906 142.589844 105.835938 143.082031 106.332031 143.539062 C 106.824219 143.992188 107.351562 144.40625 107.914062 144.78125 C 108.472656 145.15625 109.058594 145.484375 109.667969 145.769531 C 110.28125 146.054688 110.910156 146.289062 111.554688 146.472656 C 112.203125 146.660156 112.859375 146.796875 113.527344 146.878906 C 114.195312 146.964844 114.867188 146.996094 115.539062 146.976562 C 116.214844 146.957031 116.882812 146.886719 117.542969 146.765625 C 118.207031 146.640625 118.855469 146.46875 119.488281 146.246094 C 120.125 146.023438 120.738281 145.753906 121.332031 145.433594 C 121.925781 145.117188 122.492188 144.753906 123.027344 144.347656 C 123.566406 143.941406 124.070312 143.5 124.539062 143.015625 C 125.007812 142.53125 125.433594 142.015625 125.824219 141.464844 C 126.210938 140.914062 126.554688 140.339844 126.855469 139.734375 C 127.152344 139.132812 127.40625 138.511719 127.609375 137.867188 C 127.808594 137.226562 127.960938 136.574219 128.0625 135.90625 C 128.082031 135.738281 128.15625 135.59375 128.277344 135.476562 C 128.402344 135.359375 128.550781 135.296875 128.722656 135.289062 C 128.886719 135.273438 129.042969 135.308594 129.183594 135.394531 C 129.328125 135.480469 129.429688 135.601562 129.496094 135.753906 C 129.742188 136.484375 129.910156 137.230469 130 137.996094 C 130.277344 140.867188 129.761719 143.589844 128.449219 146.160156 C 124.578125 153.902344 114.707031 155.640625 106.886719 153.359375 C 105.71875 153.035156 104.59375 152.59375 103.515625 152.035156 C 102.433594 151.476562 101.421875 150.816406 100.480469 150.050781 C 99.539062 149.285156 98.683594 148.433594 97.917969 147.488281 C 97.152344 146.546875 96.488281 145.539062 95.933594 144.457031 C 95.84375 144.25 95.6875 144.121094 95.46875 144.070312 C 95.261719 143.992188 95.054688 143.992188 94.847656 144.070312 C 90.203125 148.027344 86.332031 152.632812 83.234375 157.886719 C 80.539062 162.859375 78.164062 167.980469 76.105469 173.25 C 74.050781 178.519531 72.332031 183.898438 70.949219 189.382812 C 69.5625 194.867188 68.527344 200.414062 67.835938 206.03125 C 67.144531 211.644531 66.808594 217.277344 66.820312 222.933594 C 66.65625 234.085938 67.765625 245.105469 70.144531 256 C 72.523438 266.894531 76.113281 277.375 80.910156 287.441406 C 80.949219 287.558594 81.011719 287.664062 81.101562 287.753906 C 81.1875 287.839844 81.292969 287.90625 81.410156 287.945312 C 81.53125 287.980469 81.652344 287.992188 81.777344 287.972656 C 81.898438 287.949219 82.011719 287.902344 82.113281 287.828125 Z M 125.507812 124.257812 C 124.359375 122.160156 123.316406 120.011719 122.382812 117.808594 C 121.445312 115.605469 120.625 113.363281 119.914062 111.078125 C 119.203125 108.792969 118.609375 106.480469 118.132812 104.132812 C 117.652344 101.789062 117.292969 99.429688 117.050781 97.046875 C 116.808594 94.667969 116.6875 92.28125 116.683594 89.890625 C 116.679688 87.496094 116.796875 85.109375 117.03125 82.730469 C 117.265625 80.347656 117.621094 77.984375 118.09375 75.640625 C 118.566406 73.292969 119.152344 70.976562 119.855469 68.691406 C 120.261719 67.664062 120.757812 66.679688 121.339844 65.738281 C 121.921875 64.800781 122.585938 63.917969 123.328125 63.101562 C 124.070312 62.28125 124.878906 61.535156 125.757812 60.859375 C 126.636719 60.1875 127.566406 59.597656 128.550781 59.09375 C 129.535156 58.585938 130.554688 58.175781 131.613281 57.855469 C 132.671875 57.535156 133.75 57.3125 134.851562 57.1875 C 135.949219 57.058594 137.050781 57.035156 138.15625 57.109375 C 139.257812 57.183594 140.347656 57.355469 141.417969 57.625 C 149.121094 59.488281 156.902344 60.890625 164.769531 61.828125 C 172.636719 62.765625 180.53125 63.234375 188.457031 63.234375 C 196.378906 63.234375 204.273438 62.765625 212.140625 61.828125 C 220.007812 60.890625 227.792969 59.488281 235.492188 57.625 C 236.5625 57.355469 237.652344 57.183594 238.757812 57.109375 C 239.859375 57.035156 240.960938 57.0625 242.0625 57.1875 C 243.160156 57.3125 244.238281 57.535156 245.296875 57.855469 C 246.355469 58.175781 247.378906 58.589844 248.359375 59.09375 C 249.34375 59.597656 250.277344 60.1875 251.152344 60.859375 C 252.03125 61.535156 252.839844 62.28125 253.582031 63.101562 C 254.324219 63.921875 254.988281 64.800781 255.570312 65.738281 C 256.15625 66.679688 256.648438 67.664062 257.054688 68.691406 C 257.753906 70.980469 258.335938 73.300781 258.800781 75.648438 C 259.265625 77.992188 259.613281 80.359375 259.84375 82.742188 C 260.074219 85.125 260.183594 87.511719 260.171875 89.902344 C 260.164062 92.296875 260.035156 94.683594 259.785156 97.0625 C 259.535156 99.445312 259.167969 101.804688 258.683594 104.148438 C 258.199219 106.492188 257.597656 108.804688 256.882812 111.089844 C 256.164062 113.375 255.335938 115.613281 254.394531 117.816406 C 253.453125 120.015625 252.402344 122.164062 251.246094 124.257812 C 242.117188 120.378906 232.683594 117.492188 222.949219 115.589844 C 211.492188 113.503906 199.945312 112.457031 188.300781 112.457031 C 176.65625 112.457031 165.109375 113.503906 153.652344 115.589844 C 143.96875 117.5 134.589844 120.390625 125.507812 124.257812 Z M 368.316406 117.566406 C 362.972656 108.511719 333.125 112.496094 297.007812 133.390625 C 296.851562 133.46875 296.746094 133.585938 296.691406 133.746094 C 296.632812 133.910156 296.644531 134.066406 296.71875 134.222656 C 296.792969 134.378906 296.910156 134.484375 297.074219 134.539062 C 297.234375 134.597656 297.394531 134.589844 297.546875 134.515625 C 324.648438 123.371094 341.679688 119.460938 344.777344 124.722656 C 351.476562 136.0625 285.625 187.371094 197.667969 239.339844 C 109.714844 291.3125 32.984375 324.242188 26.25 312.863281 C 23.34375 307.910156 34.609375 294.289062 54.898438 278.039062 C 55.03125 277.941406 55.109375 277.8125 55.136719 277.648438 C 55.164062 277.488281 55.128906 277.339844 55.03125 277.207031 C 54.9375 277.074219 54.804688 276.992188 54.644531 276.964844 C 54.480469 276.941406 54.332031 276.972656 54.199219 277.070312 C 21.449219 298.855469 3.484375 321.339844 8.636719 330.046875 C 17.34375 344.828125 88.191406 319.519531 173.550781 272.542969 C 173.65625 272.488281 173.765625 272.480469 173.882812 272.507812 C 173.996094 272.539062 174.085938 272.605469 174.148438 272.703125 C 174.214844 272.804688 174.238281 272.914062 174.21875 273.027344 C 174.199219 273.144531 174.144531 273.242188 174.054688 273.316406 C 161.820312 283.828125 148.695312 293.074219 134.683594 301.0625 C 134.546875 301.179688 134.476562 301.328125 134.476562 301.507812 C 134.476562 301.6875 134.546875 301.835938 134.683594 301.953125 C 138.875 305.972656 143.445312 309.503906 148.386719 312.554688 C 148.523438 312.605469 148.589844 312.703125 148.589844 312.84375 C 148.589844 312.988281 148.523438 313.085938 148.386719 313.136719 C 140.855469 312.230469 133.808594 309.867188 127.25 306.054688 C 127.070312 305.925781 126.890625 305.925781 126.707031 306.054688 C 119.46875 310.195312 108.550781 315.882812 105.457031 317.46875 C 105.300781 317.523438 105.222656 317.632812 105.222656 317.796875 C 105.222656 317.964844 105.300781 318.074219 105.457031 318.128906 C 118.476562 321.949219 131.695312 324.863281 145.117188 326.871094 C 158.539062 328.875 172.035156 329.953125 185.601562 330.105469 C 199.171875 330.253906 212.6875 329.476562 226.152344 327.769531 C 239.613281 326.0625 252.894531 323.441406 265.996094 319.90625 C 268.917969 319.09375 271.664062 317.875 274.226562 316.253906 C 276.789062 314.632812 279.066406 312.679688 281.054688 310.386719 C 300.414062 288.097656 310.167969 257.527344 310.167969 222.78125 C 310.167969 214.984375 309.507812 207.246094 308.195312 199.5625 C 308.171875 199.429688 308.121094 199.3125 308.042969 199.207031 C 307.964844 199.097656 307.863281 199.015625 307.746094 198.960938 C 307.625 198.902344 307.5 198.875 307.367188 198.878906 C 307.234375 198.882812 307.109375 198.917969 306.992188 198.980469 C 295.210938 205.261719 283.003906 210.566406 270.371094 214.886719 C 270.226562 214.914062 270.089844 214.898438 269.957031 214.832031 C 269.828125 214.769531 269.726562 214.671875 269.660156 214.542969 C 269.59375 214.414062 269.570312 214.277344 269.59375 214.132812 C 269.621094 213.988281 269.683594 213.863281 269.789062 213.765625 C 334.441406 169.648438 375.902344 130.410156 368.316406 117.566406 Z M 188.457031 341.304688 C 164.6875 341.34375 141.226562 338.675781 118.074219 333.296875 C 117.921875 333.269531 117.804688 333.320312 117.71875 333.449219 C 117.636719 333.582031 117.636719 333.710938 117.726562 333.835938 C 128.800781 347.535156 160.3125 352.140625 188.457031 352.140625 C 216.601562 352.140625 248.113281 347.535156 259.222656 333.835938 C 259.3125 333.710938 259.3125 333.582031 259.230469 333.449219 C 259.144531 333.320312 259.027344 333.269531 258.875 333.296875 C 235.710938 338.671875 212.238281 341.339844 188.457031 341.304688 Z M 188.457031 341.304688 "/>
</g>
</g>
</svg>
