<?xml version="1.0" encoding="UTF-8" standalone="no"?>
<!-- Generator: Adobe Illustrator 18.1.1, SVG Export Plug-In . SVG Version: 6.00 Build 0)  -->

<svg
   xmlns:dc="http://purl.org/dc/elements/1.1/"
   xmlns:cc="http://creativecommons.org/ns#"
   xmlns:rdf="http://www.w3.org/1999/02/22-rdf-syntax-ns#"
   xmlns:svg="http://www.w3.org/2000/svg"
   xmlns="http://www.w3.org/2000/svg"
   xmlns:sodipodi="http://sodipodi.sourceforge.net/DTD/sodipodi-0.dtd"
   xmlns:inkscape="http://www.inkscape.org/namespaces/inkscape"
   version="1.1"
   id="Capa_1"
   x="0px"
   y="0px"
   viewBox="0 0 27.442 27.442"
   style="enable-background:new 0 0 27.442 27.442;"
   xml:space="preserve"
   sodipodi:docname="cell-phone-svgrepo-com.svg"
   inkscape:version="0.92.5 (2060ec1f9f, 2020-04-08)"><metadata
   id="metadata228"><rdf:RDF><cc:Work
       rdf:about=""><dc:format>image/svg+xml</dc:format><dc:type
         rdf:resource="http://purl.org/dc/dcmitype/StillImage" /></cc:Work></rdf:RDF></metadata><defs
   id="defs226" /><sodipodi:namedview
   pagecolor="#ffffff"
   bordercolor="#666666"
   borderopacity="1"
   objecttolerance="10"
   gridtolerance="10"
   guidetolerance="10"
   inkscape:pageopacity="0"
   inkscape:pageshadow="2"
   inkscape:window-width="640"
   inkscape:window-height="480"
   id="namedview224"
   showgrid="false"
   inkscape:zoom="8.5999564"
   inkscape:cx="13.721"
   inkscape:cy="13.721"
   inkscape:window-x="0"
   inkscape:window-y="0"
   inkscape:window-maximized="0"
   inkscape:current-layer="Capa_1" />
<g
   id="g191"
   style="fill:#ffffff">
	<path
   d="M19.494,0H7.948C6.843,0,5.951,0.896,5.951,1.999v23.446c0,1.102,0.892,1.997,1.997,1.997h11.546   c1.103,0,1.997-0.895,1.997-1.997V1.999C21.491,0.896,20.597,0,19.494,0z M10.872,1.214h5.7c0.144,0,0.261,0.215,0.261,0.481   s-0.117,0.482-0.261,0.482h-5.7c-0.145,0-0.26-0.216-0.26-0.482C10.612,1.429,10.727,1.214,10.872,1.214z M13.722,25.469   c-0.703,0-1.275-0.572-1.275-1.276s0.572-1.274,1.275-1.274c0.701,0,1.273,0.57,1.273,1.274S14.423,25.469,13.722,25.469z    M19.995,21.1H7.448V3.373h12.547V21.1z"
   id="path159"
   style="fill:#ffffff" />
	<g
   id="g161"
   style="fill:#ffffff">
	</g>
	<g
   id="g163"
   style="fill:#ffffff">
	</g>
	<g
   id="g165"
   style="fill:#ffffff">
	</g>
	<g
   id="g167"
   style="fill:#ffffff">
	</g>
	<g
   id="g169"
   style="fill:#ffffff">
	</g>
	<g
   id="g171"
   style="fill:#ffffff">
	</g>
	<g
   id="g173"
   style="fill:#ffffff">
	</g>
	<g
   id="g175"
   style="fill:#ffffff">
	</g>
	<g
   id="g177"
   style="fill:#ffffff">
	</g>
	<g
   id="g179"
   style="fill:#ffffff">
	</g>
	<g
   id="g181"
   style="fill:#ffffff">
	</g>
	<g
   id="g183"
   style="fill:#ffffff">
	</g>
	<g
   id="g185"
   style="fill:#ffffff">
	</g>
	<g
   id="g187"
   style="fill:#ffffff">
	</g>
	<g
   id="g189"
   style="fill:#ffffff">
	</g>
</g>
<g
   id="g193">
</g>
<g
   id="g195">
</g>
<g
   id="g197">
</g>
<g
   id="g199">
</g>
<g
   id="g201">
</g>
<g
   id="g203">
</g>
<g
   id="g205">
</g>
<g
   id="g207">
</g>
<g
   id="g209">
</g>
<g
   id="g211">
</g>
<g
   id="g213">
</g>
<g
   id="g215">
</g>
<g
   id="g217">
</g>
<g
   id="g219">
</g>
<g
   id="g221">
</g>
</svg>